<svg width="357" height="317" viewBox="0 0 357 317" fill="none" xmlns="http://www.w3.org/2000/svg">
<path d="M232.396 313.455L165.52 185.799C165.501 185.486 165.409 185.184 165.254 184.918C165.098 184.651 164.883 184.43 164.627 184.273C164.334 184.095 163.999 184.009 163.661 184.026C163.65 184.025 163.639 184.026 163.628 184.025C163.617 184.026 163.606 184.025 163.596 184.026C163.138 184.003 162.69 184.169 162.345 184.488C162 184.807 161.785 185.255 161.745 185.738L90.8657 313.455C90.7475 313.672 90.6708 313.911 90.6399 314.159C90.6089 314.407 90.6245 314.658 90.6855 314.9C90.7466 315.141 90.852 315.368 90.9957 315.566C91.1394 315.765 91.3187 315.931 91.5232 316.056C91.7277 316.181 91.9534 316.262 92.1876 316.295C92.4217 316.327 92.6596 316.311 92.8877 316.246C93.1157 316.181 93.3295 316.07 93.5168 315.917C93.7041 315.765 93.8612 315.575 93.9792 315.359L163.581 189.944L229.283 315.359C229.401 315.575 229.558 315.765 229.745 315.917C229.932 316.07 230.146 316.181 230.374 316.246C230.602 316.311 230.84 316.327 231.074 316.295C231.308 316.262 231.534 316.181 231.739 316.056C231.943 315.931 232.122 315.765 232.266 315.566C232.41 315.368 232.515 315.141 232.576 314.9C232.637 314.658 232.653 314.407 232.622 314.159C232.591 313.911 232.514 313.672 232.396 313.455Z" fill="#555552"/>
<path d="M152.547 291.553L160.106 289.717L157.014 257.974L145.857 260.684L152.547 291.553Z" fill="#FFB6B6"/>
<path d="M158.391 276.219L147.633 278.831L144.194 271.715L143.999 271.462C142.473 269.479 141.626 267.008 141.596 264.451L132.655 239.41L131.924 239.042C131.358 238.757 130.857 238.348 130.452 237.842C130.048 237.335 129.75 236.743 129.579 236.106C129.408 235.468 129.368 234.798 129.461 234.143C129.553 233.487 129.777 232.86 130.117 232.303L129.171 229.652L102.461 229.704L102.434 229.696L69.6355 219.955L73.0794 198.22L82.3056 204.365C85.3458 204.156 137.425 200.77 142.236 213.127C146.52 224.131 152.694 242.93 157.119 256.763C157.34 257.384 157.614 257.982 157.938 258.549C158.627 259.672 159.031 260.963 159.111 262.299C159.164 262.88 159.268 263.454 159.424 264.014C161.263 269.835 158.461 276.065 158.433 276.128L158.391 276.219Z" fill="#555552"/>
<path d="M149.993 288.899L152.451 288.302L161.151 281.84L167.189 284.722L167.189 284.722C170.096 284.016 173.148 284.561 175.674 286.238C178.201 287.915 179.995 290.585 180.662 293.662L180.743 294.039L152.589 300.878L149.993 288.899Z" fill="#2F2E41"/>
<path d="M51.9949 268.911C47.5339 274.558 44.867 281.55 44.3728 288.893C44.2399 290.471 44.3429 292.062 44.6779 293.607C45.0503 295.101 45.7936 296.462 46.8308 297.548C47.7785 298.582 48.8611 299.523 49.555 300.783C49.9012 301.434 50.1136 302.154 50.1783 302.897C50.243 303.641 50.1585 304.39 49.9305 305.097C49.4054 306.873 48.309 308.343 47.1896 309.741C45.9467 311.294 44.6325 312.885 44.1454 314.904C44.0864 315.149 43.7313 315.037 43.7903 314.793C44.6377 311.281 47.7684 309.196 49.1949 306.01C49.8606 304.523 50.1071 302.815 49.3946 301.294C48.7716 299.964 47.656 298.992 46.6878 297.954C45.6614 296.91 44.8921 295.615 44.4472 294.183C44.0389 292.662 43.8782 291.077 43.972 289.499C44.1295 285.94 44.8144 282.431 46.0017 279.098C47.3368 275.286 49.2779 271.744 51.7411 268.626C51.8937 268.433 52.1464 268.719 51.9949 268.911L51.9949 268.911Z" fill="white"/>
<path d="M44.4005 286.518C43.2481 286.263 42.2188 285.583 41.4965 284.598C40.7742 283.614 40.4059 282.39 40.4574 281.145C40.4599 281.094 40.481 281.046 40.5161 281.012C40.5512 280.977 40.5977 280.958 40.6457 280.959C40.6937 280.96 40.7395 280.98 40.7735 281.016C40.8074 281.052 40.8268 281.101 40.8277 281.152C40.7777 282.311 41.1209 283.451 41.7953 284.367C42.4696 285.282 43.4308 285.911 44.5052 286.142C44.7386 286.193 44.6326 286.568 44.4005 286.518H44.4005Z" fill="white"/>
<path d="M46.285 297.091C48.3106 295.715 49.7721 293.582 50.3779 291.116C50.4377 290.872 50.7928 290.983 50.733 291.227C50.0981 293.792 48.5729 296.009 46.462 297.436C46.2607 297.571 46.0848 297.226 46.285 297.091H46.285Z" fill="white"/>
<path d="M47.6914 275.646C48.1179 275.843 48.5839 275.924 49.0476 275.884C49.5113 275.843 49.9582 275.681 50.3482 275.412C50.5477 275.274 50.7235 275.619 50.5252 275.756C50.0931 276.051 49.5993 276.23 49.0871 276.276C48.5749 276.322 48.0597 276.235 47.5867 276.022C47.5405 276.005 47.5019 275.971 47.4786 275.926C47.4554 275.881 47.4492 275.828 47.4615 275.778C47.4756 275.728 47.5077 275.687 47.5507 275.662C47.5938 275.637 47.6443 275.631 47.6914 275.646H47.6914Z" fill="white"/>
<path d="M60.5088 293.082C59.7337 292.143 59.2989 290.944 59.2819 289.698C59.2649 288.451 59.667 287.239 60.4162 286.278C60.5684 286.084 60.8603 286.325 60.7079 286.519C60.0086 287.413 59.6342 288.543 59.6523 289.703C59.6703 290.864 60.0796 291.979 60.8062 292.848C60.9639 293.037 60.6656 293.27 60.5088 293.082V293.082Z" fill="white"/>
<path d="M56.0008 302.725C58.4005 302.918 60.7807 302.146 62.6668 300.563C62.8535 300.406 63.0738 300.721 62.8873 300.878C60.9217 302.521 58.4432 303.319 55.9464 303.113C55.7084 303.093 55.7641 302.705 56.0008 302.725V302.725Z" fill="white"/>
<path d="M69.3193 286.498C69.5478 286.927 69.8733 287.29 70.2668 287.553C70.6602 287.816 71.1092 287.971 71.5734 288.005C71.8115 288.022 71.7555 288.41 71.519 288.393C71.0062 288.353 70.5106 288.181 70.0753 287.891C69.64 287.601 69.2783 287.203 69.0219 286.732C68.9942 286.689 68.9827 286.637 68.9899 286.587C68.997 286.536 69.0222 286.489 69.0603 286.457C69.0999 286.427 69.1492 286.414 69.1977 286.421C69.2462 286.429 69.2899 286.457 69.3193 286.498H69.3193Z" fill="white"/>
<path d="M262.347 289.612C261.579 280.755 256.679 271.888 248.819 268.747C251.678 277.933 251.375 287.894 247.964 296.866C246.637 300.322 244.821 304.018 245.863 307.582C246.511 309.799 248.208 311.536 250.131 312.652C252.053 313.767 254.207 314.341 256.334 314.904L256.744 315.287C260.39 307.275 263.116 298.468 262.347 289.612Z" fill="#F0F0F0"/>
<path d="M248.736 268.911C253.196 274.558 255.863 281.55 256.358 288.893C256.491 290.471 256.388 292.062 256.053 293.607C255.68 295.101 254.937 296.462 253.9 297.548C252.952 298.582 251.869 299.523 251.175 300.783C250.829 301.434 250.617 302.154 250.552 302.897C250.487 303.641 250.572 304.39 250.8 305.097C251.325 306.873 252.421 308.343 253.541 309.741C254.784 311.294 256.098 312.885 256.585 314.904C256.644 315.149 256.999 315.037 256.94 314.793C256.093 311.281 252.962 309.196 251.536 306.01C250.87 304.523 250.623 302.815 251.336 301.294C251.959 299.964 253.074 298.992 254.043 297.954C255.069 296.91 255.838 295.615 256.283 294.183C256.692 292.662 256.852 291.077 256.758 289.499C256.601 285.94 255.916 282.431 254.729 279.098C253.394 275.286 251.452 271.744 248.989 268.626C248.837 268.433 248.584 268.719 248.736 268.911L248.736 268.911Z" fill="white"/>
<path d="M256.33 286.518C257.482 286.263 258.512 285.583 259.234 284.598C259.956 283.614 260.325 282.39 260.273 281.145C260.271 281.094 260.249 281.046 260.214 281.012C260.179 280.977 260.133 280.958 260.085 280.959C260.037 280.96 259.991 280.981 259.957 281.016C259.923 281.052 259.904 281.101 259.903 281.152C259.953 282.311 259.61 283.451 258.935 284.367C258.261 285.282 257.3 285.911 256.225 286.142C255.992 286.193 256.098 286.568 256.33 286.518Z" fill="white"/>
<path d="M254.445 297.091C252.42 295.715 250.958 293.582 250.353 291.116C250.293 290.872 249.938 290.983 249.997 291.227C250.632 293.792 252.157 296.009 254.268 297.436C254.47 297.571 254.646 297.226 254.445 297.091H254.445Z" fill="white"/>
<path d="M253.039 275.646C252.613 275.843 252.147 275.924 251.683 275.884C251.219 275.843 250.772 275.681 250.382 275.412C250.183 275.274 250.007 275.619 250.205 275.756C250.637 276.051 251.131 276.23 251.643 276.276C252.156 276.322 252.671 276.235 253.144 276.022C253.19 276.005 253.229 275.971 253.252 275.926C253.275 275.881 253.281 275.828 253.269 275.778C253.255 275.728 253.223 275.687 253.18 275.662C253.137 275.637 253.086 275.631 253.039 275.646H253.039Z" fill="white"/>
<path d="M224.12 283.679C224.242 283.77 224.365 283.86 224.487 283.953C226.125 285.175 227.667 286.536 229.097 288.023C229.209 288.136 229.321 288.252 229.43 288.368C232.839 291.988 235.584 296.246 237.525 300.927C238.296 302.79 238.931 304.713 239.426 306.678C240.11 309.392 240.647 312.393 242.095 314.643C242.244 314.88 242.406 315.107 242.581 315.322L256.27 315.787C256.302 315.772 256.333 315.76 256.365 315.744L256.911 315.789C256.892 315.686 256.87 315.579 256.852 315.476C256.841 315.416 256.827 315.356 256.816 315.296C256.808 315.256 256.8 315.216 256.795 315.18C256.792 315.166 256.79 315.153 256.787 315.143C256.782 315.106 256.773 315.073 256.768 315.04C256.648 314.443 256.525 313.847 256.397 313.25C256.397 313.246 256.397 313.246 256.394 313.243C255.462 308.685 254.022 304.261 252.105 300.062C252.046 299.938 251.987 299.81 251.922 299.685C251.032 297.825 249.999 296.046 248.835 294.364C248.195 293.445 247.511 292.561 246.786 291.716C244.91 289.535 242.721 287.68 240.3 286.219C235.474 283.308 229.822 282.063 224.524 283.561C224.388 283.599 224.256 283.638 224.12 283.679Z" fill="#F0F0F0"/>
<path d="M224.145 283.864C230.918 285.53 237.024 289.412 241.594 294.96C242.598 296.136 243.42 297.472 244.031 298.919C244.584 300.349 244.764 301.909 244.554 303.438C244.385 304.867 244.056 306.309 244.218 307.757C244.312 308.497 244.552 309.208 244.923 309.843C245.294 310.477 245.788 311.022 246.371 311.441C247.801 312.524 249.512 312.999 251.201 313.402C253.076 313.849 255.031 314.282 256.568 315.584C256.754 315.741 256.974 315.426 256.788 315.269C254.114 313.005 250.429 313.335 247.478 311.701C246.101 310.938 244.933 309.731 244.637 308.063C244.378 306.603 244.716 305.116 244.899 303.671C245.124 302.182 245.002 300.658 244.543 299.232C244.004 297.756 243.231 296.389 242.259 295.188C240.109 292.448 237.567 290.082 234.723 288.178C231.49 285.985 227.926 284.395 224.186 283.475C223.954 283.418 223.915 283.808 224.145 283.864V283.864Z" fill="white"/>
<path d="M240.222 293.082C240.997 292.143 241.432 290.944 241.449 289.698C241.466 288.451 241.064 287.239 240.314 286.278C240.162 286.084 239.87 286.325 240.023 286.519C240.722 287.413 241.096 288.543 241.078 289.703C241.06 290.864 240.651 291.979 239.924 292.848C239.767 293.037 240.065 293.27 240.222 293.082V293.082Z" fill="white"/>
<path d="M244.73 302.725C242.33 302.918 239.95 302.146 238.064 300.563C237.877 300.406 237.657 300.721 237.843 300.878C239.809 302.521 242.287 303.319 244.784 303.113C245.022 303.093 244.966 302.705 244.73 302.725V302.725Z" fill="white"/>
<path d="M231.411 286.498C231.183 286.927 230.857 287.29 230.464 287.553C230.07 287.816 229.621 287.971 229.157 288.005C228.919 288.022 228.975 288.41 229.211 288.393C229.724 288.353 230.22 288.181 230.655 287.891C231.09 287.601 231.452 287.203 231.709 286.732C231.736 286.689 231.748 286.637 231.741 286.587C231.733 286.536 231.708 286.489 231.67 286.457C231.631 286.427 231.581 286.414 231.533 286.421C231.484 286.429 231.441 286.457 231.411 286.498H231.411Z" fill="white"/>
<path d="M229.341 121.804C230.334 121.804 231.139 120.952 231.139 119.901C231.139 118.85 230.334 117.998 229.341 117.998C228.349 117.998 227.544 118.85 227.544 119.901C227.544 120.952 228.349 121.804 229.341 121.804Z" fill="#3F3D56"/>
<path d="M206.832 134.561L231.066 118.441C231.286 118.295 231.53 118.198 231.786 118.155C232.042 118.112 232.303 118.125 232.554 118.192C232.805 118.259 233.041 118.379 233.247 118.545C233.453 118.711 233.625 118.92 233.752 119.158C233.88 119.397 233.961 119.66 233.99 119.933C234.018 120.205 233.995 120.481 233.92 120.743C233.846 121.006 233.721 121.25 233.555 121.46C233.389 121.67 233.185 121.843 232.954 121.967L207.44 135.697C207.298 135.774 207.134 135.789 206.982 135.74C206.83 135.692 206.701 135.583 206.623 135.437C206.545 135.29 206.523 135.118 206.561 134.955C206.6 134.791 206.697 134.65 206.832 134.561V134.561Z" fill="#F3F3ED"/>
<path d="M158.212 169.271C158.021 168.97 157.921 168.615 157.926 168.253C157.931 167.891 158.04 167.539 158.239 167.245C158.65 166.663 159.196 166.205 159.824 165.914C161.121 165.216 162.517 164.748 163.958 164.531C165.052 164.367 166.247 164.314 167.096 163.565C167.94 162.82 168.41 161.427 169.503 161.311C170.56 161.199 171.372 162.423 172.432 162.499C173.738 162.593 174.593 160.975 175.864 160.643C176.714 160.42 177.589 160.813 178.387 161.196L183.176 163.496L185.63 164.675C186.487 165.086 187.454 165.641 187.616 166.623C187.838 167.972 186.421 168.924 185.21 169.403C176.557 172.784 167.049 172.785 158.395 169.406" fill="#BEA710"/>
<path d="M165.426 194.126C200.174 194.126 228.343 189.865 228.343 184.61C228.343 179.354 200.174 175.094 165.426 175.094C130.678 175.094 102.509 179.354 102.509 184.61C102.509 189.865 130.678 194.126 165.426 194.126Z" fill="#555552"/>
<path d="M293.057 243.609H249.914C247.929 243.609 246.319 245.313 246.319 247.415C246.319 249.517 247.929 251.221 249.914 251.221H293.057C295.043 251.221 296.652 249.517 296.652 247.415C296.652 245.313 295.043 243.609 293.057 243.609Z" fill="#3F3D56"/>
<path d="M313.965 175.745L299.716 247.411L303.427 265.753L310.434 300.37V315.93C310.435 315.951 310.433 315.972 310.43 315.993C310.428 316.337 310.368 316.678 310.254 317H304.622C304.508 316.678 304.448 316.337 304.446 315.993C304.443 315.972 304.441 315.951 304.442 315.93V301.039L298.083 269.619L296.796 263.275L294.307 250.98L293.588 247.419V247.415L294.299 243.846L294.847 241.092L308.101 174.442C308.182 174.034 308.337 173.647 308.559 173.303C308.781 172.959 309.065 172.664 309.394 172.436C309.724 172.208 310.093 172.051 310.48 171.974C310.866 171.897 311.264 171.901 311.649 171.986C312.034 172.072 312.4 172.237 312.725 172.472C313.05 172.708 313.328 173.008 313.543 173.358C313.758 173.707 313.906 174.097 313.979 174.507C314.051 174.916 314.047 175.337 313.965 175.745L313.965 175.745Z" fill="#555552"/>
<path d="M252.91 247.415V315.93C252.911 315.951 252.91 315.972 252.906 315.993C252.904 316.337 252.844 316.678 252.73 317H247.098C246.984 316.678 246.924 316.337 246.922 315.993C246.919 315.972 246.917 315.951 246.918 315.93V247.415C246.918 246.574 247.234 245.767 247.796 245.172C248.357 244.577 249.12 244.243 249.914 244.243C250.709 244.243 251.471 244.577 252.033 245.172C252.595 245.767 252.91 246.574 252.91 247.415Z" fill="#555552"/>
<path d="M257.105 235.996H285.867C288.727 235.996 291.471 237.199 293.493 239.34C295.516 241.482 296.652 244.386 296.652 247.415H246.319C246.319 244.386 247.455 241.482 249.478 239.34C251.501 237.199 254.244 235.996 257.105 235.996Z" fill="#555552"/>
<path d="M300.248 269.619H249.914C249.12 269.619 248.358 269.285 247.796 268.69C247.234 268.095 246.918 267.288 246.918 266.447C246.918 265.606 247.234 264.799 247.796 264.204C248.358 263.609 249.12 263.275 249.914 263.275H300.248C301.042 263.275 301.804 263.609 302.366 264.204C302.928 264.799 303.244 265.606 303.244 266.447C303.244 267.288 302.928 268.095 302.366 268.69C301.804 269.285 301.042 269.619 300.248 269.619Z" fill="#555552"/>
<path d="M66.1209 251.337H116.89C118.876 251.337 120.485 249.633 120.485 247.53V246.377C120.485 244.275 118.876 242.571 116.89 242.571H66.1209C64.1353 242.571 62.5256 244.275 62.5256 246.377V247.53C62.5256 249.633 64.1353 251.337 66.1209 251.337Z" fill="#3F3D56"/>
<path d="M65.5979 247.005L64.679 251.014L61.3075 265.698L59.8535 272.042L53.1023 301.47V314.238C53.1041 314.863 52.9288 315.475 52.5991 315.993C52.3398 316.413 51.9873 316.758 51.5725 317H48.6402C48.2254 316.758 47.8729 316.413 47.6137 315.993C47.2839 315.475 47.1085 314.863 47.1102 314.238V300.709L54.6124 268.016L59.4541 246.903L43.0357 164.326C42.9545 163.918 42.9499 163.498 43.0223 163.088C43.0946 162.679 43.2425 162.289 43.4574 161.94C43.6723 161.591 43.9501 161.29 44.2749 161.055C44.5996 160.82 44.965 160.655 45.35 160.569C45.7351 160.483 46.1323 160.479 46.5189 160.556C46.9056 160.633 47.2741 160.79 47.6034 161.018C47.9328 161.246 48.2164 161.54 48.4382 161.884C48.66 162.229 48.8155 162.616 48.896 163.023L64.072 239.333L64.7711 242.852L65.5858 246.954L65.5979 247.005Z" fill="#555552"/>
<path d="M119.343 246.954V314.238C119.345 314.863 119.169 315.475 118.839 315.993C118.58 316.413 118.228 316.758 117.813 317H114.877C114.464 316.757 114.113 316.412 113.854 315.993C113.524 315.475 113.349 314.863 113.351 314.238V246.954C113.351 246.113 113.667 245.306 114.228 244.711C114.79 244.116 115.552 243.782 116.347 243.782C117.141 243.782 117.904 244.116 118.465 244.711C119.027 245.306 119.343 246.113 119.343 246.954Z" fill="#3F3D56"/>
<path d="M120.485 246.954H62.5256V245.223C62.5256 243.724 62.8046 242.239 63.3466 240.854C63.8886 239.468 64.6831 238.209 65.6847 237.149C66.6862 236.089 67.8752 235.247 69.1838 234.674C70.4924 234.1 71.8949 233.804 73.3113 233.804H109.7C112.56 233.804 115.304 235.007 117.326 237.149C119.349 239.29 120.485 242.195 120.485 245.223V246.954H120.485Z" fill="#555552"/>
<path d="M116.345 272.041H58.3856C57.591 272.041 56.8289 271.707 56.2671 271.112C55.7052 270.517 55.3895 269.71 55.3895 268.869C55.3895 268.028 55.7052 267.221 56.2671 266.626C56.8289 266.031 57.591 265.697 58.3856 265.697H116.345C117.14 265.697 117.902 266.031 118.464 266.626C119.026 267.221 119.341 268.028 119.341 268.869C119.341 269.71 119.026 270.517 118.464 271.112C117.902 271.707 117.14 272.041 116.345 272.041Z" fill="#555552"/>
<path d="M190.833 299.711L184.536 296.522L193.186 268.656L202.48 273.361L190.833 299.711Z" fill="#9E616A"/>
<path d="M233.508 297.187L226.737 298.956L216.926 271.53L226.92 268.919L233.508 297.187Z" fill="#9E616A"/>
<path d="M207.556 178.59C208.454 180.134 209.887 181.246 211.548 181.687C213.21 182.129 214.968 181.865 216.448 180.952C216.746 180.761 217.028 180.545 217.292 180.305L237.201 192.4L236.336 179.984L217.563 170.401C216.542 169.315 215.209 168.618 213.773 168.42C212.337 168.222 210.88 168.534 209.63 169.307C208.91 169.765 208.284 170.37 207.789 171.088C207.293 171.805 206.938 172.621 206.745 173.486C206.552 174.351 206.524 175.248 206.663 176.125C206.802 177.001 207.106 177.84 207.556 178.59Z" fill="#9E616A"/>
<path d="M228.641 187.846L232.161 190.116L247.965 200.32C249.003 201.008 250.159 201.472 251.367 201.686C252.575 201.901 253.811 201.861 255.004 201.569C256.197 201.278 257.324 200.74 258.321 199.987C259.318 199.234 260.165 198.28 260.813 197.18C261.983 195.139 262.397 192.711 261.975 190.366L254.951 153.21C254.691 151.752 254.137 150.369 253.327 149.158C252.517 147.947 251.469 146.936 250.255 146.193C249.041 145.45 247.69 144.993 246.295 144.854C244.899 144.715 243.491 144.897 242.168 145.386C239.943 146.214 238.1 147.908 237.014 150.123C235.927 152.338 235.678 154.909 236.318 157.311L243.663 183.68L232.404 178.122L228.641 187.846Z" fill="#F3F3ED"/>
<path d="M220.321 289.501L209.486 266.494L209.487 266.441L210.557 224.243C210.57 223.868 210.599 223.49 210.642 223.12C210.831 221.428 211.336 219.792 212.128 218.309C212.92 216.826 213.983 215.525 215.255 214.481C216.474 213.472 217.869 212.73 219.361 212.298C220.853 211.866 222.412 211.752 223.945 211.965L254.928 216.21L256.003 211.558L256.203 211.481L285.89 199.962L286.061 200.257C289.949 206.955 292.667 220.334 293.407 224.274L293.418 224.331C293.433 224.414 293.443 224.465 293.446 224.479C294.974 231.204 288.659 242.344 282.369 244.019C269.118 247.594 257.268 244.805 243.546 241.575C238.625 240.416 233.54 239.219 227.939 238.184L228.105 241.674C228.242 244.36 228.769 247.009 229.668 249.525C230.667 252.622 231.456 255.068 229.788 260.168L228.981 262.635C229.399 263.86 229.543 265.171 229.402 266.465C229.26 267.759 228.836 269 228.164 270.091L228.002 270.353L235.147 289.497L220.321 289.501Z" fill="#555552"/>
<path d="M202.518 279.327L189.597 278.055L194.175 262.556C195.12 252.436 197.5 242.524 201.235 233.155L207.479 217.489C207.494 217.14 207.521 216.789 207.562 216.445C207.751 214.753 208.256 213.118 209.048 211.635C209.84 210.152 210.903 208.851 212.175 207.807C213.393 206.798 214.789 206.056 216.281 205.624C217.773 205.192 219.331 205.079 220.865 205.291L251.802 209.53L253.149 197.556L282.844 193.349L282.98 193.583C288.17 202.524 291.465 209.524 293.35 215.611C293.444 215.922 293.528 216.238 293.6 216.554C295.139 223.324 291.298 230.188 285.038 231.855C269.085 236.161 249.901 236.042 224.679 231.477L212.473 262.232C211.306 265.17 209.861 267.975 208.161 270.605L202.518 279.327Z" fill="#555552"/>
<path d="M247.588 124.062C255.855 124.062 262.556 116.81 262.556 107.863C262.556 98.9165 255.855 91.6638 247.588 91.6638C239.322 91.6638 232.621 98.9165 232.621 107.863C232.621 116.81 239.322 124.062 247.588 124.062Z" fill="#9E616A"/>
<path d="M251.91 210.095L249.762 201.95L249.234 197.932L246.148 198.041L240.09 183.237L237.737 179.333C237.257 178.798 236.822 178.284 236.433 177.79C233.981 174.856 232.015 171.505 230.618 167.878C229.64 165.272 229.065 162.515 228.916 159.715C228.477 151.443 231.771 142.692 238.985 132.963C238.867 132.618 238.788 132.26 238.75 131.896C238.621 130.714 238.938 129.526 239.632 128.59C240.327 127.654 241.342 127.047 242.457 126.899L249.415 126.072C249.956 126.007 250.504 126.057 251.027 126.218C251.55 126.38 252.037 126.649 252.46 127.012C252.902 127.387 253.27 127.852 253.54 128.379C253.811 128.905 253.98 129.484 254.038 130.081C254.131 131.004 253.959 131.935 253.545 132.753C257.092 133.23 260.434 134.78 263.17 137.217C265.906 139.654 267.919 142.875 268.969 146.494C273.133 154.723 276.451 163.401 278.868 172.38C279.345 174.138 279.133 175.95 278.927 177.703C278.738 179.321 278.542 180.995 278.872 182.663C279.207 184.36 280.013 186.062 280.867 187.864C281.844 189.928 282.855 192.062 283.128 194.237L283.148 194.39L251.91 210.095Z" fill="#F3F3ED"/>
<path opacity="0.2" d="M230.803 167.798C232.194 171.404 234.149 174.736 236.586 177.654C237.003 178.182 237.444 178.7 237.905 179.22L240.273 183.153C249.001 176.227 256.072 148.956 256.072 148.956L246.225 146.927L230.803 167.798Z" fill="black"/>
<path d="M224.842 125.576C225.704 127.144 225.954 129.006 225.539 130.767C225.124 132.528 224.077 134.047 222.62 135.003C222.321 135.192 222.007 135.355 221.683 135.489L222.38 159.78L212.444 153.158L213.305 131.106C212.883 129.639 212.931 128.065 213.442 126.629C213.953 125.194 214.899 123.978 216.132 123.171C216.85 122.711 217.647 122.408 218.478 122.28C219.308 122.153 220.154 122.202 220.966 122.426C221.778 122.651 222.539 123.045 223.205 123.586C223.871 124.127 224.427 124.803 224.842 125.576Z" fill="#9E616A"/>
<path d="M223.253 150.611L212.327 152.256L212.797 176.212C212.824 177.921 213.263 179.594 214.073 181.072C214.884 182.551 216.037 183.785 217.425 184.659C219.12 185.715 221.094 186.159 223.048 185.924C225.003 185.689 226.832 184.788 228.26 183.356L254.056 157.087C255.871 155.264 256.958 152.774 257.092 150.129C257.226 147.484 256.397 144.886 254.777 142.868C253.975 141.863 252.991 141.039 251.883 140.445C250.774 139.85 249.565 139.498 248.325 139.408C247.086 139.318 245.842 139.493 244.667 139.921C243.493 140.35 242.411 141.025 241.488 141.904C241.233 142.146 240.99 142.401 240.761 142.67L223.728 163.416L223.253 150.611Z" fill="#F3F3ED"/>
<path d="M131.867 306.866L139.623 306.865L143.312 275.194L131.866 275.195L131.867 306.866Z" fill="#FFB6B6"/>
<path d="M87.9081 124.533C96.4569 124.533 103.387 117.196 103.387 108.145C103.387 99.0939 96.4569 91.7568 87.9081 91.7568C79.3593 91.7568 72.4292 99.0939 72.4292 108.145C72.4292 117.196 79.3593 124.533 87.9081 124.533Z" fill="#FFB6B6"/>
<path d="M142.154 297.11H131.171L128.371 293.136L127.614 289.392L126.961 288.724C126.076 287.825 125.504 286.636 125.338 285.349C125.171 284.062 125.42 282.754 126.043 281.636L118.084 242.319C115.999 242.125 92.4901 239.9 76.1481 236.838C71.9658 236.054 68.7004 233.902 66.4427 230.441C60.8949 221.935 63.2714 208.173 63.296 208.035L63.3235 207.881L63.47 207.864L101.641 203.328L101.693 203.354C102.96 203.989 132.772 218.973 137.644 224.131C139.844 226.461 144.752 240.299 145.851 255.011C146.048 257.647 145.34 260.331 144.655 262.927C144.014 265.355 143.351 267.867 143.482 270.241C143.684 273.904 143.875 277.747 144.051 281.662C144.079 282.286 144.523 282.932 144.952 283.556C145.401 284.209 145.825 284.825 145.852 285.47C146.112 291.722 142.253 296.977 142.214 297.029L142.154 297.11Z" fill="#555552"/>
<path d="M144.654 151.794C143.823 151.553 142.952 151.508 142.102 151.663C141.252 151.817 140.445 152.167 139.737 152.687C139.029 153.208 138.437 153.886 138.003 154.675C137.57 155.464 137.305 156.344 137.227 157.253L124.366 161.508L124.902 170.414L142.985 164.134C144.436 164.171 145.849 163.643 146.957 162.651C148.065 161.658 148.791 160.27 148.997 158.749C149.202 157.228 148.874 155.68 148.074 154.398C147.273 153.116 146.057 152.19 144.654 151.794V151.794Z" fill="#FFB6B6"/>
<path d="M136.263 166.531L126.651 170.382L126.405 170.887C125.816 172.098 124.796 173.011 123.571 173.425C122.346 173.84 121.016 173.722 119.873 173.099L98.2674 181.756C98.2674 181.756 88.619 171.534 81.7496 162.411L84.0908 147.165C84.6331 143.628 85.7856 140.226 87.4907 137.13C101.579 140.401 109.665 161.251 109.665 161.251L135.055 156.122L136.263 166.531Z" fill="#BEA710"/>
<path d="M85.7085 123.657C81.8334 124.765 77.5612 123.292 74.537 120.497C71.5128 117.703 69.6211 113.743 68.5311 109.653C67.7328 106.658 67.3543 103.333 68.614 100.52C69.8738 97.7083 73.2642 95.811 75.8799 97.2315C74.2663 95.2411 75.0725 91.9491 76.957 90.2464C78.8416 88.5436 81.4295 88.0555 83.8941 87.7886C87.4711 87.4013 91.1658 87.358 94.5696 88.5849C97.9733 89.8117 101.066 92.494 102.131 96.1299C103.219 96.6662 104.444 96.8053 105.615 96.5255C106.786 96.2457 107.836 95.5627 108.6 94.5835C108.798 95.7081 108.639 96.8701 108.15 97.8899C107.66 98.9096 106.867 99.7301 105.893 100.225L111.108 98.4344C112.005 100.444 110.433 102.932 108.424 103.576C106.414 104.219 104.245 103.516 102.338 102.586C100.43 101.656 98.5822 100.48 96.5107 100.118C94.4392 99.7549 92.0059 100.46 91.0477 102.438C90.5458 103.474 90.5197 104.687 90.2283 105.81C89.9369 106.932 89.1988 108.096 88.1025 108.188C87.4099 108.246 86.7317 107.856 86.041 107.936C85.1847 108.035 84.5293 108.856 84.3013 109.735C84.1293 110.631 84.1272 111.555 84.2951 112.452L85.6198 123.172" fill="#555552"/>
<path d="M66.5317 232.399C66.5288 232.399 66.5259 232.399 66.523 232.398L66.4006 232.376L66.3652 232.25C65.9202 230.665 65.3539 229.043 64.8062 227.474C63.9997 225.301 63.3187 223.079 62.767 220.819C62.3327 218.658 62.0317 216.469 61.8657 214.267C61.7129 212.668 61.5549 211.015 61.2862 209.388C61.167 208.665 61.619 207.981 62.0562 207.319C62.4615 206.705 62.8444 206.126 62.764 205.577C62.6819 205.017 62.0946 204.401 61.5266 203.805C60.904 203.152 60.2603 202.477 60.1691 201.767C58.9283 192.073 58.3508 182.297 58.441 172.515C58.5693 158.981 59.147 149.756 60.1581 145.096C62.8768 132.566 75.4374 130.28 77.4035 129.997C77.6129 129.407 77.9348 128.868 78.3493 128.415C78.7638 127.962 79.2619 127.604 79.8127 127.364C80.3634 127.123 80.9551 127.005 81.5507 127.017C82.1464 127.029 82.7333 127.171 83.275 127.434L92.1995 131.759C94.0098 132.639 95.6298 133.905 96.9587 135.476C98.2876 137.047 99.2971 138.891 99.9245 140.893L101.25 145.172L101.914 173.897L98.2342 194.126L105.425 205.545C67.1019 227.821 66.6552 232.399 66.5317 232.399Z" fill="#BEA710"/>
<path d="M127.694 303.674L130.215 303.674L140.06 299.436L145.336 303.674H145.337C148.319 303.674 151.178 304.928 153.287 307.16C155.395 309.392 156.58 312.42 156.58 315.577V315.964L127.694 315.965L127.694 303.674Z" fill="#2F2E41"/>
<path d="M147.875 172.292C147.131 171.83 146.301 171.547 145.443 171.461C144.585 171.375 143.719 171.49 142.907 171.797C142.095 172.104 141.357 172.595 140.744 173.237C140.131 173.878 139.658 174.655 139.359 175.511L125.895 176.066L124.081 182.706L143.222 183.744C144.614 184.18 146.108 184.061 147.422 183.409C148.737 182.757 149.779 181.618 150.353 180.206C150.926 178.794 150.991 177.209 150.534 175.751C150.077 174.292 149.131 173.062 147.875 172.292Z" fill="#FFB6B6"/>
<path d="M136.815 184.46L122.984 184.277L121.233 184.252L93.094 183.877C93.094 183.877 85.4526 176.159 78.7988 168.212L79.7314 161.071C80.6411 154.062 83.9251 147.642 88.9721 143.005C98.5019 149.747 104.028 163.091 104.028 163.091L113.295 167.481C119.816 167.79 126.171 169.76 131.819 173.225L134.866 175.094L136.815 184.46Z" fill="#BEA710"/>
<path d="M238.449 310.696L233.847 311.898L231.953 307.513L230.922 312.663L218.716 315.852C218.131 316.004 217.515 315.955 216.959 315.711C216.402 315.468 215.933 315.042 215.621 314.496C215.309 313.95 215.17 313.313 215.225 312.677C215.279 312.042 215.524 311.441 215.923 310.964L224.009 301.29L222.925 296.64L233.328 294.609L238.449 310.696Z" fill="#2F2E41"/>
<path d="M189.697 312.199L185.308 310.303L186.216 305.578L182.519 309.097L170.879 304.067C170.321 303.826 169.851 303.403 169.536 302.859C169.222 302.314 169.08 301.678 169.131 301.042C169.183 300.407 169.425 299.805 169.822 299.325C170.219 298.845 170.751 298.513 171.339 298.375L183.254 295.596L184.964 291.161L194.502 296.004L189.697 312.199Z" fill="#2F2E41"/>
<path d="M174.414 182.918H170.819C166.953 182.913 163.247 181.285 160.513 178.391C157.78 175.497 156.242 171.574 156.238 167.481V167.27H188.995V167.481C188.99 171.574 187.453 175.497 184.719 178.391C181.986 181.285 178.28 182.913 174.414 182.918Z" fill="#F3F3ED"/>
<path d="M170.819 161.771C170.819 162.822 169.021 163.675 169.021 163.675C169.021 163.675 167.224 162.822 167.224 161.771C167.224 160.72 169.021 159.868 169.021 159.868C169.021 159.868 170.819 160.72 170.819 161.771Z" fill="#3F3D56"/>
<path d="M181.605 161.771C181.605 162.822 179.807 163.675 179.807 163.675C179.807 163.675 178.009 162.822 178.009 161.771C178.009 160.72 179.807 159.868 179.807 159.868C179.807 159.868 181.605 160.72 181.605 161.771Z" fill="#3F3D56"/>
<path d="M174.414 165.578C174.414 166.629 172.616 167.481 172.616 167.481C172.616 167.481 170.819 166.629 170.819 165.578C170.819 164.527 172.616 163.675 172.616 163.675C172.616 163.675 174.414 164.527 174.414 165.578Z" fill="#3F3D56"/>
<path d="M161.831 157.754C162.824 157.754 163.628 156.901 163.628 155.85C163.628 154.799 162.824 153.947 161.831 153.947C160.838 153.947 160.033 154.799 160.033 155.85C160.033 156.901 160.838 157.754 161.831 157.754Z" fill="#3F3D56"/>
<path d="M135.687 151.76L164.038 155.906C164.295 155.943 164.542 156.035 164.764 156.177C164.985 156.318 165.178 156.505 165.33 156.727C165.481 156.95 165.589 157.202 165.646 157.47C165.703 157.737 165.708 158.014 165.661 158.283C165.614 158.553 165.515 158.81 165.372 159.038C165.229 159.266 165.043 159.461 164.827 159.612C164.61 159.762 164.367 159.864 164.112 159.912C163.857 159.96 163.596 159.953 163.344 159.891L135.463 153.045C135.308 153.007 135.173 152.907 135.086 152.766C134.999 152.626 134.966 152.455 134.995 152.289C135.024 152.124 135.112 151.976 135.241 151.878C135.37 151.779 135.529 151.737 135.687 151.76Z" fill="#F3F3ED"/>
<path d="M287.639 100.838C285.095 97.6965 283.885 93.5291 281.851 89.9623C279.818 86.3954 276.278 83.2031 272.539 84.0331C269.962 84.6053 267.97 87.0133 266.962 89.6978C265.953 92.3824 265.764 95.343 265.588 98.2433C265.65 92.283 261.941 86.5049 256.832 84.603C251.723 82.7012 245.609 84.8226 242.398 89.611C240.997 88.2362 239.168 87.4534 237.259 87.411C235.349 87.3685 233.491 88.0694 232.037 89.3807C229.165 92.098 228.529 97.2698 230.641 100.736C232.753 104.202 237.327 105.493 240.683 103.571L241.869 104.726C241.202 107.199 242.497 110.121 244.674 111.051C246.439 111.806 248.932 111.681 249.592 113.642C250.054 115.013 249.191 116.476 248.273 117.529C247.356 118.582 246.266 119.67 246.156 121.127C245.989 123.326 248.135 124.867 250.086 125.331C254.791 126.449 260.011 124.143 262.723 119.747C262.775 119.662 262.832 119.577 262.894 119.492C264.415 117.432 265.524 115.066 266.152 112.537C266.78 110.008 266.915 107.37 266.548 104.785C266.395 103.769 266.549 103.013 267.211 102.772C270.07 101.732 278.082 103.915 280.507 105.888C282.932 107.861 284.874 110.471 287.209 112.571C289.545 114.671 292.522 116.291 295.487 115.719C297.862 115.261 299.883 113.436 301.242 111.234C302.601 109.032 303.383 106.465 304.084 103.914C298.832 107.126 291.643 105.781 287.639 100.838Z" fill="#555552"/>
</svg>
